<svg xmlns="http://www.w3.org/2000/svg" version="1.1" xmlns:xlink="http://www.w3.org/1999/xlink" xmlns:svgjs="http://svgjs.dev/svgjs" width="164" height="50" viewBox="0 0 1000 292"><g transform="matrix(1,0,0,1,-0.6060606060606233,-0.5349313521518582)"><svg viewBox="0 0 396 116" data-background-color="#ffffff" preserveAspectRatio="xMidYMid meet" height="292" width="1000" xmlns="http://www.w3.org/2000/svg" xmlns:xlink="http://www.w3.org/1999/xlink"><g id="tight-bounds" transform="matrix(1,0,0,1,0.2400000000000091,0.21250697551238318)"><svg viewBox="0 0 395.52 115.57498604897526" height="115.57498604897526" width="395.52"><g><svg viewBox="0 0 608.0703895421241 177.68438204926665" height="115.57498604897526" width="395.52"><g transform="matrix(1,0,0,1,212.55038954212407,51.919751330575664)"><svg viewBox="0 0 395.52 73.84487938811532" height="73.84487938811532" width="395.52"><g><svg viewBox="0 0 395.52 73.84487938811532" height="73.84487938811532" width="395.52"><g><svg viewBox="0 0 395.52 73.84487938811532" height="73.84487938811532" width="395.52"><g transform="matrix(1,0,0,1,0,0)"><svg width="395.52" viewBox="3.85 -35 254.92999999999998 47.6" height="73.84487938811532" data-palette-color="#9c27b0"><path d="M10.25 0L3.85 0 3.85-35 16.3-35Q20.33-35 23.1-33.8 25.88-32.6 27.31-30.1 28.75-27.6 28.75-23.7L28.75-23.7Q28.75-19.75 27.33-17.19 25.9-14.63 23.15-13.39 20.4-12.15 16.45-12.15L16.45-12.15 10.25-12.15 10.25 0ZM10.25-29.65L10.25-17.5 15.7-17.5Q18.98-17.5 20.61-18.98 22.25-20.45 22.25-23.6L22.25-23.6Q22.25-26.75 20.59-28.2 18.93-29.65 15.55-29.65L15.55-29.65 10.25-29.65ZM38.5 0L32.3 0 32.3-25 38.1-25 38.25-22.35Q39.2-23.4 40.92-24.45 42.65-25.5 44.7-25.5L44.7-25.5Q45.3-25.5 45.8-25.4L45.8-25.4 45.35-19.3Q44.8-19.45 44.26-19.5 43.72-19.55 43.2-19.55L43.2-19.55Q41.62-19.55 40.32-18.82 39.02-18.1 38.5-17.05L38.5-17.05 38.5 0ZM59.7 0.5L59.7 0.5Q55.62 0.5 52.75-1.28 49.87-3.05 48.36-6 46.84-8.95 46.84-12.45L46.84-12.45Q46.84-15.98 48.36-18.95 49.87-21.93 52.75-23.71 55.62-25.5 59.7-25.5L59.7-25.5Q63.77-25.5 66.65-23.71 69.52-21.93 71.03-18.95 72.55-15.98 72.55-12.45L72.55-12.45Q72.55-8.95 71.03-6 69.52-3.05 66.65-1.28 63.77 0.5 59.7 0.5ZM59.7-4.6L59.7-4.6Q62.82-4.6 64.51-6.79 66.19-8.97 66.19-12.45L66.19-12.45Q66.19-15.98 64.51-18.19 62.82-20.4 59.7-20.4L59.7-20.4Q56.59-20.4 54.9-18.19 53.2-15.98 53.2-12.45L53.2-12.45Q53.2-8.97 54.9-6.79 56.59-4.6 59.7-4.6ZM81.89 0L75.24 0 80.09-35 85.34-35 93.89-19.05 102.39-35 107.64-35 112.49 0 105.84 0 102.49-26.3 104.24-25.95 93.89-7.35 83.49-25.9 85.24-26.25 81.89 0ZM122.69 0.5L122.69 0.5Q120.69 0.5 119.04-0.39 117.39-1.28 116.42-2.95 115.44-4.63 115.44-7L115.44-7Q115.44-9.13 116.43-10.64 117.42-12.15 119.03-13.16 120.64-14.18 122.53-14.76 124.42-15.35 126.25-15.63 128.09-15.9 129.49-15.95L129.49-15.95Q129.39-18.1 128.39-19.07 127.39-20.05 124.99-20.05L124.99-20.05Q123.31-20.05 121.73-19.59 120.14-19.13 118.14-18.15L118.14-18.15 117.59-23.2Q119.84-24.3 122.1-24.85 124.37-25.4 126.69-25.4L126.69-25.4Q129.49-25.4 131.51-24.4 133.54-23.4 134.64-21.19 135.74-18.98 135.74-15.35L135.74-15.35 135.74-8.6Q135.74-6.73 135.91-5.89 136.09-5.05 136.56-4.83 137.04-4.6 137.94-4.6L137.94-4.6 138.74-4.6 138.19 0.5 135.94 0.5Q134.54 0.5 133.45 0.14 132.37-0.23 131.59-0.88 130.81-1.53 130.34-2.4L130.34-2.4Q129.12-1.03 127.03-0.26 124.94 0.5 122.69 0.5ZM125.29-4.25L125.29-4.25Q126.12-4.25 127.34-4.69 128.56-5.13 129.54-6.05L129.54-6.05 129.54-11.75Q127.79-11.68 126.04-11.18 124.29-10.68 123.11-9.7 121.94-8.72 121.94-7.25L121.94-7.25Q121.94-5.73 122.74-4.99 123.54-4.25 125.29-4.25ZM148.39 0L142.19 0 142.19-25 147.99-25 148.24-20.35 146.79-22.25Q148.21-23.45 150.19-24.43 152.16-25.4 154.79-25.4L154.79-25.4Q159.59-25.4 161.91-22.21 164.24-19.03 164.24-13.95L164.24-13.95 164.24 0 158.04 0 158.04-13.45Q158.04-16.95 156.88-18.63 155.71-20.3 153.09-20.3L153.09-20.3Q150.96-20.3 149.61-19.26 148.26-18.23 147.24-16.5L147.24-16.5 148.39-19.55 148.39 0ZM175.19 0.5L175.19 0.5Q173.19 0.5 171.53-0.39 169.88-1.28 168.91-2.95 167.94-4.63 167.94-7L167.94-7Q167.94-9.13 168.92-10.64 169.91-12.15 171.52-13.16 173.13-14.18 175.02-14.76 176.91-15.35 178.75-15.63 180.58-15.9 181.98-15.95L181.98-15.95Q181.88-18.1 180.88-19.07 179.88-20.05 177.48-20.05L177.48-20.05Q175.81-20.05 174.22-19.59 172.63-19.13 170.63-18.15L170.63-18.15 170.08-23.2Q172.33-24.3 174.6-24.85 176.86-25.4 179.19-25.4L179.19-25.4Q181.98-25.4 184.01-24.4 186.03-23.4 187.13-21.19 188.23-18.98 188.23-15.35L188.23-15.35 188.23-8.6Q188.23-6.73 188.41-5.89 188.58-5.05 189.06-4.83 189.53-4.6 190.44-4.6L190.44-4.6 191.23-4.6 190.69 0.5 188.44 0.5Q187.03 0.5 185.95 0.14 184.86-0.23 184.08-0.88 183.31-1.53 182.83-2.4L182.83-2.4Q181.61-1.03 179.52-0.26 177.44 0.5 175.19 0.5ZM177.78-4.25L177.78-4.25Q178.61-4.25 179.83-4.69 181.06-5.13 182.03-6.05L182.03-6.05 182.03-11.75Q180.28-11.68 178.53-11.18 176.78-10.68 175.61-9.7 174.44-8.72 174.44-7.25L174.44-7.25Q174.44-5.73 175.23-4.99 176.03-4.25 177.78-4.25ZM204.58 12.6L204.58 12.6Q201.08 12.6 198.47 11.74 195.86 10.88 194.42 9.28 192.98 7.68 192.98 5.45L192.98 5.45Q192.98 3.58 194.02 2.11 195.06 0.65 197.03-0.45L197.03-0.45Q196.03-1.05 195.43-1.95 194.83-2.85 194.83-4L194.83-4Q194.83-5.2 195.52-6.09 196.21-6.98 197.33-7.5L197.33-7.5Q195.43-8.85 194.46-10.96 193.48-13.08 193.48-15.55L193.48-15.55Q193.48-18.25 194.66-20.51 195.83-22.78 198.09-24.14 200.36-25.5 203.63-25.5L203.63-25.5Q205.33-25.5 206.77-25.08 208.21-24.65 209.33-23.9L209.33-23.9Q210.08-24.33 211.51-24.66 212.93-25 214.68-25L214.68-25Q215.11-25 215.5-25 215.88-25 216.28-25L216.28-25 215.88-21.1Q215.33-21.1 214.77-21.1 214.21-21.1 213.63-21.1L213.63-21.1Q213.41-21.1 213.03-21.1 212.66-21.1 212.23-21.05L212.23-21.05Q212.98-19.9 213.36-18.48 213.73-17.05 213.73-15.55L213.73-15.55Q213.73-12.85 212.57-10.59 211.41-8.33 209.16-6.96 206.91-5.6 203.63-5.6L203.63-5.6Q202.93-5.6 202.28-5.7 201.63-5.8 200.98-5.95L200.98-5.95Q200.43-5.73 200.43-5.15L200.43-5.15Q200.43-4.48 201.26-4.13 202.08-3.78 203.83-3.5L203.83-3.5 208.13-2.95Q212.16-2.43 214.44-0.68 216.73 1.07 216.73 4.3L216.73 4.3Q216.73 6.8 215.3 8.66 213.86 10.53 211.13 11.56 208.41 12.6 204.58 12.6ZM204.83 7.9L204.83 7.9Q207.98 7.9 209.61 7.13 211.23 6.35 211.23 4.75L211.23 4.75Q211.23 3.33 210.09 2.65 208.96 1.98 206.48 1.6L206.48 1.6 201.01 0.8Q199.78 1.28 198.96 2.11 198.13 2.95 198.13 4.3L198.13 4.3Q198.13 6.13 199.91 7.01 201.68 7.9 204.83 7.9ZM203.63-10.2L203.63-10.2Q205.86-10.2 207-11.66 208.13-13.13 208.13-15.55L208.13-15.55Q208.13-18 207-19.45 205.86-20.9 203.63-20.9L203.63-20.9Q201.38-20.9 200.23-19.45 199.08-18 199.08-15.55L199.08-15.55Q199.08-13.13 200.23-11.66 201.38-10.2 203.63-10.2ZM231.58 0.5L231.58 0.5Q227.06 0.5 224.04-1.31 221.03-3.13 219.53-6.11 218.03-9.1 218.03-12.65L218.03-12.65Q218.03-16.07 219.44-18.98 220.86-21.88 223.58-23.64 226.31-25.4 230.23-25.4L230.23-25.4Q233.83-25.4 236.23-23.93 238.63-22.45 239.83-19.99 241.03-17.53 241.03-14.55L241.03-14.55Q241.03-13.73 240.93-12.89 240.83-12.05 240.63-11.15L240.63-11.15 224.48-11.15Q224.83-8.83 225.94-7.39 227.06-5.95 228.67-5.28 230.28-4.6 232.13-4.6L232.13-4.6Q234.31-4.6 236.18-5.16 238.06-5.73 239.63-6.65L239.63-6.65 239.93-1.4Q238.51-0.65 236.38-0.08 234.26 0.5 231.58 0.5ZM224.63-15.35L224.63-15.35 234.73-15.35Q234.73-16.48 234.31-17.61 233.88-18.75 232.89-19.53 231.91-20.3 230.23-20.3L230.23-20.3Q227.83-20.3 226.46-18.9 225.08-17.5 224.63-15.35ZM251.48 0L245.28 0 245.28-25 251.08-25 251.23-22.35Q252.18-23.4 253.9-24.45 255.63-25.5 257.68-25.5L257.68-25.5Q258.28-25.5 258.78-25.4L258.78-25.4 258.33-19.3Q257.78-19.45 257.24-19.5 256.7-19.55 256.18-19.55L256.18-19.55Q254.6-19.55 253.3-18.82 252-18.1 251.48-17.05L251.48-17.05 251.48 0Z" opacity="1" transform="matrix(1,0,0,1,0,0)" fill="#9c27b0" class="undefined-text-0" data-fill-palette-color="primary" id="text-0"></path></svg></g></svg></g></svg></g></svg></g><g><svg viewBox="0 0 177.68438204926665 177.68438204926665" height="177.68438204926665" width="177.68438204926665"><g><svg></svg></g><g id="icon-0"><svg viewBox="0 0 177.68438204926665 177.68438204926665" height="177.68438204926665" width="177.68438204926665"><g><path d="M0 88.842c0-49.066 39.776-88.842 88.842-88.842 49.066 0 88.842 39.776 88.842 88.842 0 49.066-39.776 88.842-88.842 88.842-49.066 0-88.842-39.776-88.842-88.842zM88.842 171.025c45.388 0 82.183-36.794 82.183-82.183 0-45.388-36.794-82.183-82.183-82.183-45.388 0-82.183 36.794-82.183 82.183 0 45.388 36.794 82.183 82.183 82.183z" data-fill-palette-color="accent" fill="#9c27b0" stroke="transparent"></path></g><g transform="matrix(1,0,0,1,53.80090563189688,39.37214105841717)"><svg viewBox="0 0 70.08257078547288 98.9400999324323" height="98.9400999324323" width="70.08257078547288"><g><svg xmlns="http://www.w3.org/2000/svg" xmlns:xlink="http://www.w3.org/1999/xlink" version="1.1" x="0" y="0" viewBox="14 0 68 96" enable-background="new 0 0 96 96" xml:space="preserve" height="98.9400999324323" width="70.08257078547288" class="icon-gn-0" data-fill-palette-color="accent" id="gn-0"><path d="M80 0H16c-1.104 0-2 0.9-2 2v92c0 1.1 0.896 2 2 2h64c1.1 0 2-0.9 2-2V2C82 0.9 81.1 0 80 0zM62 72H34c-1.104 0-2-0.9-2-2s0.896-2 2-2h28c1.1 0 2 0.9 2 2S63.1 72 62 72zM62 64H34c-1.104 0-2-0.9-2-2s0.896-2 2-2h28c1.1 0 2 0.9 2 2S63.1 64 62 64zM66 50c0 1.1-0.9 2-2 2H32c-1.104 0-2-0.9-2-2V18c0-1.1 0.896-2 2-2h32c1.1 0 2 0.9 2 2V50z" fill="#9c27b0" data-fill-palette-color="accent"></path><path d="M34 20h28v28H34V20z" fill="#9c27b0" data-fill-palette-color="accent"></path></svg></g></svg></g></svg></g></svg></g></svg></g><defs></defs></svg><rect width="395.52" height="115.57498604897526" fill="none" stroke="none" visibility="hidden"></rect></g></svg></g></svg>