<?xml version="1.0" standalone="no"?>
<!DOCTYPE svg PUBLIC "-//W3C//DTD SVG 20010904//EN"
 "http://www.w3.org/TR/2001/REC-SVG-20010904/DTD/svg10.dtd">
<svg version="1.0" xmlns="http://www.w3.org/2000/svg"
 width="164pt" height="200pt" viewBox="0 0 1080.000000 1080.000000"
 preserveAspectRatio="xMidYMid meet">

<g transform="translate(0.000000,1080.000000) scale(0.100000,-0.100000)"
fill="#000000" stroke="none">
<path d="M2445 5884 c-150 -31 -236 -74 -313 -158 -93 -103 -135 -208 -134
-336 2 -200 129 -379 320 -450 78 -29 191 -36 275 -16 241 57 389 260 374 511
-4 65 -11 96 -39 155 -75 160 -187 249 -361 286 -69 14 -85 15 -122 8z m153
-79 c2 -2 -24 -51 -57 -109 -34 -58 -61 -107 -61 -110 0 -4 87 -6 194 -6 l194
0 11 -31 c6 -18 11 -36 11 -40 0 -5 -56 -9 -125 -9 -70 0 -125 -4 -125 -9 0
-5 43 -84 96 -176 l96 -166 -23 -25 c-12 -13 -26 -24 -30 -24 -4 0 -35 48 -69
107 -52 89 -64 104 -74 91 -6 -8 -51 -86 -101 -173 -88 -156 -89 -157 -119
-151 -17 4 -34 10 -38 14 -4 4 20 54 53 110 32 57 59 108 59 113 0 5 -86 9
-199 9 -198 0 -199 0 -205 23 -12 47 -13 47 119 47 69 0 125 3 125 8 0 4 -43
81 -95 172 -52 91 -95 167 -95 170 0 3 11 18 25 34 l24 28 18 -30 c10 -16 38
-66 63 -110 25 -45 48 -82 52 -82 4 0 50 77 104 170 l97 170 36 -6 c20 -4 37
-8 39 -9z"/>
<path d="M2400 5453 c-16 -27 -30 -52 -30 -58 0 -5 14 -32 31 -58 l30 -48 56
3 c56 3 57 3 86 52 l29 50 -23 40 c-35 64 -38 66 -95 66 -53 0 -54 0 -84 -47z"/>
<path d="M3652 5688 c-5 -7 -17 -28 -26 -46 -11 -21 -26 -35 -45 -38 -27 -6
-63 -44 -40 -44 6 0 8 -7 5 -16 -4 -9 1 -25 9 -34 14 -16 12 -25 -26 -111 -80
-181 -111 -272 -104 -306 6 -31 46 -73 69 -73 14 0 62 137 58 167 -3 24 23 83
37 83 5 0 14 14 21 30 8 20 20 30 34 30 11 0 46 15 77 34 31 19 73 42 92 51
53 25 107 88 107 126 0 17 -5 39 -10 49 -12 22 -67 40 -123 40 -32 0 -39 4
-48 27 -6 15 -16 31 -22 35 -19 12 -53 9 -65 -4z m164 -253 c-11 -8 -24 -15
-30 -15 -5 0 -1 7 10 15 10 8 24 14 29 14 6 0 1 -6 -9 -14z m-46 -30 c0 -4
-88 -45 -97 -45 -2 0 -1 5 2 10 11 19 95 50 95 35z"/>
<path d="M4117 5643 c-50 -82 -174 -338 -193 -398 -19 -60 -7 -128 28 -146 31
-17 72 28 73 80 0 21 -3 37 -7 34 -18 -10 -6 18 18 44 14 15 32 40 40 56 8 15
18 27 23 27 8 0 91 -87 204 -213 82 -92 114 -106 185 -83 26 9 65 28 85 42 26
17 50 25 75 24 63 -3 72 -1 97 26 13 14 28 23 34 20 5 -3 17 -3 26 0 13 6 14
9 3 16 -8 5 -4 6 13 3 30 -7 61 17 53 40 -4 8 -1 15 6 15 6 0 8 -4 5 -10 -14
-22 20 -8 61 25 23 19 46 35 51 35 14 0 54 70 60 104 9 60 -12 108 -72 160
-30 26 -55 54 -55 62 0 22 -49 64 -75 64 -43 0 -167 -73 -229 -135 -82 -81
-110 -139 -114 -237 -3 -55 0 -85 11 -107 18 -36 14 -41 -35 -41 -67 0 -150
57 -243 166 -47 54 -48 57 -29 71 10 8 27 12 36 10 9 -3 28 8 44 24 15 16 35
29 44 29 9 0 35 19 58 43 48 48 57 95 22 104 -11 3 -20 10 -20 15 0 5 -6 8
-12 7 -7 -1 -24 -1 -38 1 -23 1 -23 2 -5 10 35 15 -45 11 -88 -4 -34 -13 -39
-12 -43 2 -25 85 -52 89 -97 15z m806 -161 c37 -33 40 -51 15 -88 -26 -38 -73
-66 -200 -118 -88 -37 -128 -44 -128 -26 0 46 123 191 200 234 48 28 81 27
113 -2z m-256 -109 c-9 -9 -19 -14 -23 -11 -10 10 6 28 24 28 15 0 15 -1 -1
-17z m193 -167 c0 -2 -7 -7 -16 -10 -8 -3 -12 -2 -9 4 6 10 25 14 25 6z m-360
-136 c-8 -5 -24 -9 -35 -9 l-20 0 20 9 c11 5 27 9 35 9 13 1 13 0 0 -9z"/>
<path d="M6295 5692 c-32 -6 -89 -66 -220 -230 -138 -172 -191 -264 -181 -317
7 -35 55 -85 82 -85 14 0 54 69 54 94 0 28 218 132 237 113 4 -5 1 -12 -6 -16
-9 -6 -10 -11 -2 -15 16 -10 14 -32 -5 -51 -22 -21 -29 -86 -12 -107 7 -9 25
-20 40 -23 31 -8 26 -19 54 138 17 94 19 99 46 104 33 7 32 2 12 54 -15 35
-15 50 -5 109 11 61 9 130 -6 183 -2 9 -13 17 -24 17 -11 0 -18 4 -14 9 8 13
-25 28 -50 23z m25 -198 c-7 -39 -17 -64 -25 -64 -16 0 -27 -40 -12 -41 7 0
-14 -8 -46 -19 -31 -10 -69 -26 -83 -35 -14 -9 -28 -15 -30 -12 -3 2 16 32 41
66 25 33 45 66 45 71 0 16 115 121 119 109 1 -5 -2 -39 -9 -75z m-221 -270
c-31 -17 -49 -17 -27 0 10 7 15 16 12 19 -3 3 4 3 16 0 l22 -6 -23 -13z"/>
<path d="M7540 5693 c-39 -15 -90 -67 -194 -197 -126 -157 -174 -229 -200
-297 l-18 -47 27 -40 c22 -33 68 -62 80 -50 2 2 16 30 32 62 26 56 33 62 103
98 77 39 136 56 148 43 4 -4 1 -10 -6 -12 -9 -4 -10 -9 -3 -17 12 -14 3 -58
-10 -51 -11 7 -23 -59 -15 -89 5 -22 60 -55 72 -44 4 5 15 62 28 155 9 61 22
88 44 91 26 4 28 22 7 61 -13 25 -13 37 0 97 21 100 5 204 -31 204 -8 0 -13 4
-9 9 4 8 -26 33 -37 30 -2 0 -10 -3 -18 -6z m40 -130 c-1 -44 -27 -126 -43
-134 -9 -6 -17 -19 -17 -29 0 -14 -11 -22 -37 -29 -21 -6 -55 -20 -75 -31 -21
-11 -38 -17 -38 -13 0 5 19 32 41 62 37 48 45 65 48 94 1 4 7 7 14 7 7 0 30
20 50 45 40 48 57 56 57 28z m-236 -340 c-31 -22 -46 -15 -22 11 7 7 19 11 27
8 11 -4 10 -8 -5 -19z"/>
<path d="M8478 5665 c-23 -19 -49 -40 -55 -45 -7 -6 -13 -21 -13 -34 0 -13
-27 -79 -60 -147 -51 -106 -60 -132 -60 -179 0 -64 22 -114 63 -144 42 -31
158 -29 254 3 92 31 88 39 -5 12 -76 -23 -92 -25 -92 -13 0 5 30 17 67 28 37
10 66 23 64 28 -1 5 3 13 11 18 8 6 3 7 -17 2 -16 -4 -42 -6 -58 -5 -16 1 -30
-5 -33 -14 -4 -10 -11 -12 -22 -6 -10 4 -39 6 -66 4 -57 -4 -105 19 -86 41 5
8 8 20 5 28 -3 8 1 21 10 28 13 11 13 15 3 21 -10 7 -9 9 5 9 9 0 17 4 17 9 0
14 49 30 153 50 54 11 101 22 104 25 3 3 0 19 -7 36 -16 39 -47 46 -107 26
-63 -22 -78 -20 -79 7 -2 30 21 40 155 68 71 15 98 25 85 30 -17 6 -16 8 11
19 36 14 23 24 -45 35 -80 12 -83 13 -76 50 6 30 4 33 -25 39 -49 10 -54 8
-101 -29z"/>
<path d="M8989 5653 c-43 -69 -120 -223 -169 -336 -44 -105 -47 -143 -14 -194
18 -29 34 -29 63 -2 19 18 22 29 18 69 -5 43 -2 52 24 81 16 18 31 41 35 51
12 40 44 17 155 -112 111 -130 161 -170 212 -170 28 0 159 63 178 86 11 13 9
14 -14 9 -17 -5 -27 -3 -27 4 0 6 8 11 17 11 12 0 14 3 6 11 -7 7 -30 6 -75
-2 -60 -11 -69 -10 -109 9 -24 12 -86 64 -138 116 -91 91 -93 94 -71 106 12 7
33 13 46 15 13 1 33 14 45 29 11 14 28 26 38 26 24 0 101 81 101 107 0 24 -34
53 -61 53 -10 0 -20 6 -22 13 -4 10 -6 10 -6 0 -1 -7 -6 -13 -12 -13 -5 0 -7
5 -3 12 7 11 -29 8 -97 -8 -23 -5 -27 -2 -33 23 -17 67 -46 69 -87 6z m381
-572 c0 -9 -24 -21 -41 -21 -16 0 -10 18 9 23 28 8 32 7 32 -2z"/>
<path d="M5357 5604 c-40 -42 -86 -96 -104 -121 -63 -89 -173 -281 -173 -303
0 -22 61 -90 81 -90 5 0 9 10 9 23 0 38 12 67 26 67 8 0 14 6 14 14 0 8 4 16
8 18 5 2 36 50 68 107 76 133 154 224 154 179 0 -6 -12 -41 -26 -76 -27 -67
-28 -118 -3 -148 24 -29 76 -9 152 58 40 35 76 69 80 76 9 14 87 55 93 49 2
-2 -18 -51 -45 -108 -65 -139 -68 -164 -22 -210 43 -42 68 -38 91 14 11 24 17
52 14 64 -4 14 2 28 17 42 22 20 22 22 4 34 -26 20 -13 65 21 73 17 4 22 9 14
14 -9 5 -9 9 -1 14 6 4 11 12 11 17 0 6 -4 7 -10 4 -5 -3 -10 -1 -10 5 0 7 6
10 14 7 18 -7 66 36 66 60 0 10 -8 40 -17 67 -13 36 -26 53 -49 63 -29 14 -34
13 -88 -13 -32 -15 -62 -36 -67 -46 -6 -10 -14 -16 -20 -13 -5 4 -32 -10 -60
-30 -28 -20 -53 -34 -56 -32 -2 3 -8 29 -12 59 -11 82 -48 138 -91 138 -6 0
-44 -34 -83 -76z m485 -156 c-7 -7 -12 -8 -12 -2 0 14 12 26 19 19 2 -3 -1
-11 -7 -17z"/>
<path d="M8008 5655 c-96 -35 -252 -206 -263 -287 -1 -13 -6 -40 -10 -61 -18
-90 113 -181 196 -136 39 21 79 -17 50 -47 -19 -18 -72 -147 -56 -134 14 12
15 10 10 -11 -7 -29 6 -43 48 -53 33 -8 57 7 57 34 0 10 11 42 25 72 14 29 25
65 25 79 0 46 27 94 73 132 50 41 64 76 47 118 -12 27 -44 51 -34 25 3 -8 1
-17 -5 -21 -10 -5 -16 14 -12 38 3 22 -22 -1 -65 -59 -54 -75 -79 -89 -173
-100 -75 -8 -121 8 -97 35 7 9 17 27 21 41 21 69 131 177 225 219 49 22 82 26
108 12 14 -8 17 -5 17 13 -2 29 -40 92 -61 100 -26 10 -86 6 -126 -9z"/>
<path d="M7094 5646 c-10 -8 -19 -20 -19 -28 -1 -7 -6 -12 -12 -11 -7 2 -37
-32 -67 -73 -31 -42 -56 -71 -56 -65 0 15 50 89 92 137 17 19 25 34 19 34 -12
0 -96 -117 -142 -198 -17 -29 -34 -50 -38 -48 -4 3 -13 31 -21 63 -13 61 -46
102 -105 133 -28 15 -28 14 -82 -45 -129 -143 -210 -287 -198 -353 10 -55 35
-92 63 -92 20 0 31 17 81 123 32 67 61 134 64 148 7 28 73 93 86 85 5 -3 11
-72 15 -153 8 -172 17 -196 81 -201 45 -4 44 -6 92 118 72 186 137 279 249
356 41 28 51 40 43 50 -6 7 -18 10 -26 7 -10 -4 -14 -2 -10 4 15 25 -77 32
-109 9z m-374 -70 c0 -3 -4 -8 -10 -11 -5 -3 -10 -1 -10 4 0 6 5 11 10 11 6 0
10 -2 10 -4z m380 -50 c0 -3 -4 -8 -10 -11 -5 -3 -10 -1 -10 4 0 6 5 11 10 11
6 0 10 -2 10 -4z m-30 -46 c0 -5 -5 -10 -11 -10 -5 0 -7 5 -4 10 3 6 8 10 11
10 2 0 4 -4 4 -10z"/>
<path d="M3566 5215 c-9 -26 -7 -32 5 -12 6 10 9 21 6 23 -2 3 -7 -2 -11 -11z"/>
</g>
</svg>
