
        <svg xmlns="http://www.w3.org/2000/svg" xmlns:xlink="http://www.w3.org/1999/xlink" version="1.1" width="3157.48031496063" height="1220.4724409448818" viewBox="0 0 3157.48031496063 1220.4724409448818">
			
			<g transform="scale(7.874015748031496) translate(10, 10)">
				<defs id="SvgjsDefs3130"/><g id="SvgjsG3131" featureKey="rootContainer" transform="matrix(1,0,0,1,0,0)" fill="#000"><rect width="381" height="135" rx="10"/></g><g id="SvgjsG3132" featureKey="FRM3ZD-0" transform="matrix(6.432748394508844,0,0,6.432748394508844,21.78388192842981,-29.71343314380684)" fill="#ffffff"><path d="M7.6 16.48 c0 0.53334 -0.10004 1.0334 -0.30004 1.5 s-0.47334 0.87332 -0.82 1.22 s-0.75332 0.62 -1.22 0.82 s-0.96666 0.3 -1.5 0.3 c-0.69334 0 -1.3233 -0.16334 -1.89 -0.49 s-1.0233 -0.77 -1.37 -1.33 l3.46 -2.62 l0 -5.82 l3.64 0 l0 6.42 z"/></g><g id="SvgjsG3133" featureKey="vMvB0T-0" transform="matrix(3.1758960001740815,0,0,3.1758960001740815,85.36481913414144,25.817588280099365)" fill="#ffffff"><path d="M1.3 16.96 q0.98 0.6 1.9 0.6 q0.96 0 1.33 -0.61 t0.37 -1.89 l0 -8.72 q0.6 -0.12 1.58 -0.12 t1.62 0.12 l0 8.42 q0 1.28 -0.22 2.29 t-0.76 1.71 t-1.43 1.07 t-2.23 0.37 q-1.86 0 -3.26 -0.88 q0.22 -1.38 1.1 -2.36 z M13.9 16.28 q0.54 1.56 2.18 1.56 q0.82 0 1.33 -0.41 t0.8 -1.04 t0.39 -1.41 t0.1 -1.54 q0 -0.7 -0.05 -1.56 t-0.29 -1.61 t-0.76 -1.26 t-1.52 -0.51 q-0.96 0 -1.47 0.49 t-0.76 1.21 t-0.31 1.53 t-0.06 1.43 q0 0.92 0.09 1.64 t0.33 1.48 z M12.28 19.04 q-2.14 -1.78 -2.14 -5.86 q0 -1.76 0.41 -3.09 t1.18 -2.23 t1.87 -1.36 t2.48 -0.46 t2.49 0.46 t1.88 1.37 t1.18 2.24 t0.41 3.07 t-0.41 3.07 t-1.18 2.23 t-1.88 1.36 t-2.49 0.46 q-2.28 0 -3.8 -1.26 z M24.419999999999998 6.300000000000001 q1.62 -0.04 2.77 -0.06 t1.85 -0.02 q2.18 0 3.43 0.91 t1.25 2.73 q0 0.88 -0.5 1.64 t-1.28 1.1 q0.5 0.16 0.95 0.51 t0.77 0.82 t0.51 1.02 t0.19 1.13 q0 2.06 -1.31 3.05 t-3.71 0.99 q-0.74 0 -1.96 -0.02 t-2.96 -0.06 l-0.14 -0.14 l0 -13.46 z M29.099999999999998 13.98 l-1.66 0 l0 3.9 q0.52 -0.02 1.17 0 t1.21 -0.1 t0.94 -0.58 t0.38 -1.28 q0 -0.78 -0.49 -1.36 t-1.55 -0.58 z M27.439999999999998 8.48 l0 3.22 l1.42 0 q0.96 0 1.35 -0.47 t0.39 -1.15 t-0.4 -1.13 t-1.34 -0.45 l-0.81 0 t-0.61 -0.02 z M39.760000000000005 9.06 l0.02 1.56 l0 1.26 l4.28 0 q0.16 0.6 0.16 1.31 t-0.16 1.31 l-4.28 0 l0 5.5 q-0.64 0.12 -1.6 0.12 t-1.6 -0.12 l0 -13.54 l0.14 -0.12 l8.56 0 q0.12 0.5 0.12 1.25 t-0.41 1.11 t-1.29 0.36 l-3.94 0 z M52.34 17.3 l3.46 0 q0 0.8 -0.1 1.37 t-0.64 0.98 t-1.42 0.41 l-4.52 0 q-0.86 0 -1.36 -0.5 t-0.5 -1.36 l0 -11.86 l0.14 -0.14 l1.18 0 q1.88 0 1.88 2.04 l0 9.14 q0.88 -0.08 1.88 -0.08 z M60.400000000000006 16.28 q0.54 1.56 2.18 1.56 q0.82 0 1.33 -0.41 t0.8 -1.04 t0.39 -1.41 t0.1 -1.54 q0 -0.7 -0.05 -1.56 t-0.29 -1.61 t-0.76 -1.26 t-1.52 -0.51 q-0.96 0 -1.47 0.49 t-0.76 1.21 t-0.31 1.53 t-0.06 1.43 q0 0.92 0.09 1.64 t0.33 1.48 z M58.78 19.04 q-2.14 -1.78 -2.14 -5.86 q0 -1.76 0.41 -3.09 t1.18 -2.23 t1.87 -1.36 t2.48 -0.46 t2.49 0.46 t1.88 1.37 t1.18 2.24 t0.41 3.07 t-0.41 3.07 t-1.18 2.23 t-1.88 1.36 t-2.49 0.46 q-2.28 0 -3.8 -1.26 z M71.92 18.68 l-2.36 -12.16 q0.96 -0.36 1.7 -0.36 q0.84 0 1.22 0.37 t0.54 1.39 l0.84 5.16 q0.38 2.32 0.48 3.24 t0.13 0.96 t0.13 0.04 l1.66 -10.72 q0.74 -0.14 2.06 -0.14 t2.04 0.14 l1.52 10.46 q0.02 0.18 0.07 0.22 t0.15 0.04 q0.18 -1.88 0.6 -4.26 l1.12 -6.72 q0.58 -0.12 1.34 -0.12 q0.92 0 1.62 0.22 l0.14 0.18 l-2.64 13.36 q-1.3 0.14 -2.44 0.14 t-1.62 -0.28 t-0.62 -1.16 l-0.68 -4.34 q-0.36 -2.36 -0.58 -4.64 l-0.14 0 q-0.22 1.94 -0.66 4.64 l-0.9 5.64 q-1.36 0.14 -2.47 0.14 t-1.59 -0.28 t-0.66 -1.16 z"/></g>
			</g>
		</svg>
	